# xmcd
#
# Track frame offsets:
#	150
#	18678
#	36519
#	55181
#	70327
#	86138
#	99327
#	112968
#	128445
#	139645
#	160400
#	174872
#	193010
#	206281
#	223301
#
# Disc length: 3190
#
# Revision: 3
# Processed by: cddbd v1.5.1PL0 Copyright (c) Steve Scherf et al.
# Submitted via: VisiTrax 2.9.5.180 - For more info visit www.synapsa.com
# Normalized: r2:DSETVAR1
#
DISCID=d30c740f
DTITLE=Various Artist - CDX 323 July 2003
DYEAR=2003
DGENRE=Country
TTITLE0=Mark Wills - And the crowd goes wild
TTITLE1=Craig Morgan - Every Friday afternoon
TTITLE2=Montgomery Gentry - Hell yeah
TTITLE3=Chris Ledoux - Horsepower
TTITLE4=Hank Williams Jr - I'm one of you
TTITLE5=Terri Clark - I wanna do it alll
TTITLE6=Susan Ashton - She is
TTITLE7=Dusty Drake - Smaller pieces
TTITLE8=Dwight Yokam - The late great Golden State
TTITLE9=Various Artist - When love rules the world
TTITLE10=Diamond Rio - Wrinkles
TTITLE11=Brian Burns - Evangelina
TTITLE12=Vince Hatfield - Small town love
TTITLE13=Karen Shayne - Somebody's gonna cry
TTITLE14=Patrick Murphy - The rest of forever
EXTD=
EXTT0=
EXTT1=
EXTT2=
EXTT3=
EXTT4=
EXTT5=
EXTT6=
EXTT7=
EXTT8=
EXTT9=
EXTT10=
EXTT11=
EXTT12=
EXTT13=
EXTT14=
PLAYORDER=
